<mxfile host="www.draw.io" modified="2020-02-19T14:10:14.893Z" agent="Mozilla/5.0 (Windows NT 10.0; Win64; x64) AppleWebKit/537.36 (KHTML, like Gecko) Chrome/79.0.3945.130 Safari/537.36" etag="NwJFZjz3m0z6Ul5jZzT8" version="12.7.2" type="github">
  <diagram name="Page-1" id="74e2e168-ea6b-b213-b513-2b3c1d86103e">
    <mxGraphModel dx="918" dy="484" grid="1" gridSize="1" guides="1" tooltips="1" connect="1" arrows="1" fold="1" page="0" pageScale="1" pageWidth="1100" pageHeight="850" background="#ffffff" math="0" shadow="0">
      <root>
        <mxCell id="0" />
        <mxCell id="1" parent="0" />
        <mxCell id="WCasmGg8EaBhy9nUnkJ0-86" value="" style="endArrow=none;html=1;strokeColor=#FFB366;strokeWidth=8;fillColor=#cce5ff;edgeStyle=entityRelationEdgeStyle;" edge="1" parent="1">
          <mxGeometry width="50" height="50" relative="1" as="geometry">
            <mxPoint x="586" y="193" as="sourcePoint" />
            <mxPoint x="677" y="127" as="targetPoint" />
          </mxGeometry>
        </mxCell>
        <mxCell id="WCasmGg8EaBhy9nUnkJ0-90" value="" style="endArrow=none;html=1;strokeColor=#55D495;strokeWidth=8;fillColor=#cce5ff;edgeStyle=entityRelationEdgeStyle;" edge="1" parent="1">
          <mxGeometry width="50" height="50" relative="1" as="geometry">
            <mxPoint x="846.9999999999999" y="212" as="sourcePoint" />
            <mxPoint x="936" y="302" as="targetPoint" />
          </mxGeometry>
        </mxCell>
        <mxCell id="WCasmGg8EaBhy9nUnkJ0-89" value="" style="endArrow=none;html=1;strokeColor=#55D495;strokeWidth=8;fillColor=#cce5ff;edgeStyle=entityRelationEdgeStyle;" edge="1" parent="1">
          <mxGeometry width="50" height="50" relative="1" as="geometry">
            <mxPoint x="847" y="213" as="sourcePoint" />
            <mxPoint x="943" y="128" as="targetPoint" />
          </mxGeometry>
        </mxCell>
        <mxCell id="WCasmGg8EaBhy9nUnkJ0-79" value="" style="endArrow=none;html=1;strokeColor=#000087;strokeWidth=8;fillColor=#cce5ff;edgeStyle=entityRelationEdgeStyle;entryX=0;entryY=0.5;entryDx=0;entryDy=0;" edge="1" parent="1" target="WCasmGg8EaBhy9nUnkJ0-48">
          <mxGeometry width="50" height="50" relative="1" as="geometry">
            <mxPoint x="543.0000000000002" y="363" as="sourcePoint" />
            <mxPoint x="623.0000000000002" y="424" as="targetPoint" />
          </mxGeometry>
        </mxCell>
        <mxCell id="WCasmGg8EaBhy9nUnkJ0-62" value="" style="endArrow=none;html=1;strokeColor=#FFB366;strokeWidth=8;fillColor=#cce5ff;edgeStyle=entityRelationEdgeStyle;" edge="1" parent="1" source="WCasmGg8EaBhy9nUnkJ0-73">
          <mxGeometry width="50" height="50" relative="1" as="geometry">
            <mxPoint x="367" y="129" as="sourcePoint" />
            <mxPoint x="444" y="193" as="targetPoint" />
          </mxGeometry>
        </mxCell>
        <mxCell id="WCasmGg8EaBhy9nUnkJ0-50" value="" style="endArrow=none;html=1;strokeColor=#55D495;strokeWidth=8;fillColor=#cce5ff;edgeStyle=entityRelationEdgeStyle;" edge="1" parent="1" source="WCasmGg8EaBhy9nUnkJ0-48">
          <mxGeometry width="50" height="50" relative="1" as="geometry">
            <mxPoint x="637.18" y="290" as="sourcePoint" />
            <mxPoint x="742" y="213" as="targetPoint" />
          </mxGeometry>
        </mxCell>
        <mxCell id="WCasmGg8EaBhy9nUnkJ0-37" value="" style="endArrow=none;html=1;strokeColor=#000087;strokeWidth=8;fillColor=#cce5ff;edgeStyle=entityRelationEdgeStyle;" edge="1" parent="1">
          <mxGeometry width="50" height="50" relative="1" as="geometry">
            <mxPoint x="378" y="302" as="sourcePoint" />
            <mxPoint x="458" y="363" as="targetPoint" />
          </mxGeometry>
        </mxCell>
        <mxCell id="WCasmGg8EaBhy9nUnkJ0-8" value="" style="endArrow=none;html=1;strokeWidth=8;fillColor=#eeeeee;strokeColor=#97A0AB;" edge="1" parent="1" source="WCasmGg8EaBhy9nUnkJ0-95">
          <mxGeometry width="50" height="50" relative="1" as="geometry">
            <mxPoint x="361" y="128" as="sourcePoint" />
            <mxPoint x="950" y="128" as="targetPoint" />
          </mxGeometry>
        </mxCell>
        <mxCell id="WCasmGg8EaBhy9nUnkJ0-13" value="" style="ellipse;whiteSpace=wrap;html=1;aspect=fixed;fillColor=#97A0AB;strokeColor=none;" vertex="1" parent="1">
          <mxGeometry x="200" y="118" width="21" height="21" as="geometry" />
        </mxCell>
        <mxCell id="WCasmGg8EaBhy9nUnkJ0-15" value="" style="endArrow=none;html=1;strokeColor=#749BD6;strokeWidth=8;fillColor=#cce5ff;edgeStyle=entityRelationEdgeStyle;" edge="1" parent="1">
          <mxGeometry width="50" height="50" relative="1" as="geometry">
            <mxPoint x="224" y="127" as="sourcePoint" />
            <mxPoint x="323" y="301" as="targetPoint" />
          </mxGeometry>
        </mxCell>
        <mxCell id="WCasmGg8EaBhy9nUnkJ0-16" value="" style="endArrow=none;html=1;strokeWidth=8;fillColor=#eeeeee;strokeColor=#749BD6;movable=0;resizable=0;rotatable=0;deletable=0;editable=0;connectable=0;" edge="1" parent="1">
          <mxGeometry width="50" height="50" relative="1" as="geometry">
            <mxPoint x="360" y="302" as="sourcePoint" />
            <mxPoint x="972" y="302" as="targetPoint" />
          </mxGeometry>
        </mxCell>
        <mxCell id="WCasmGg8EaBhy9nUnkJ0-19" value="&lt;font color=&quot;#749bd6&quot; size=&quot;1&quot;&gt;&lt;b style=&quot;font-size: 14px&quot;&gt;develop&lt;/b&gt;&lt;/font&gt;" style="rounded=1;whiteSpace=wrap;html=1;fillColor=none;arcSize=44;strokeColor=#749BD6;strokeWidth=2;" vertex="1" parent="1">
          <mxGeometry x="182" y="270" width="67" height="28" as="geometry" />
        </mxCell>
        <mxCell id="WCasmGg8EaBhy9nUnkJ0-23" value="" style="endArrow=none;html=1;strokeWidth=8;fillColor=#eeeeee;strokeColor=#97A0AB;" edge="1" parent="1">
          <mxGeometry width="50" height="50" relative="1" as="geometry">
            <mxPoint x="212" y="127" as="sourcePoint" />
            <mxPoint x="359" y="127" as="targetPoint" />
          </mxGeometry>
        </mxCell>
        <mxCell id="WCasmGg8EaBhy9nUnkJ0-21" value="" style="ellipse;whiteSpace=wrap;html=1;aspect=fixed;fillColor=#749BD6;strokeColor=none;strokeWidth=1;" vertex="1" parent="1">
          <mxGeometry x="314" y="291" width="21" height="21" as="geometry" />
        </mxCell>
        <mxCell id="WCasmGg8EaBhy9nUnkJ0-29" value="" style="ellipse;whiteSpace=wrap;html=1;aspect=fixed;fillColor=#749BD6;strokeColor=none;" vertex="1" parent="1">
          <mxGeometry x="377.18" y="291" width="21" height="21" as="geometry" />
        </mxCell>
        <mxCell id="WCasmGg8EaBhy9nUnkJ0-33" value="" style="endArrow=none;html=1;strokeWidth=8;fillColor=#eeeeee;strokeColor=#749BD6;movable=0;resizable=0;rotatable=0;deletable=0;editable=0;connectable=0;" edge="1" parent="1" source="WCasmGg8EaBhy9nUnkJ0-21" target="WCasmGg8EaBhy9nUnkJ0-29">
          <mxGeometry width="50" height="50" relative="1" as="geometry">
            <mxPoint x="305" y="263" as="sourcePoint" />
            <mxPoint x="831" y="262" as="targetPoint" />
          </mxGeometry>
        </mxCell>
        <mxCell id="WCasmGg8EaBhy9nUnkJ0-40" value="&lt;font color=&quot;#000087&quot; size=&quot;1&quot;&gt;&lt;b style=&quot;font-size: 14px&quot;&gt;feature&lt;/b&gt;&lt;/font&gt;" style="rounded=1;whiteSpace=wrap;html=1;fillColor=none;arcSize=39;strokeColor=#000087;strokeWidth=2;" vertex="1" parent="1">
          <mxGeometry x="180" y="334" width="68" height="26" as="geometry" />
        </mxCell>
        <mxCell id="WCasmGg8EaBhy9nUnkJ0-41" value="" style="ellipse;whiteSpace=wrap;html=1;aspect=fixed;fillColor=#000087;strokeColor=none;" vertex="1" parent="1">
          <mxGeometry x="446.18" y="350" width="21" height="21" as="geometry" />
        </mxCell>
        <mxCell id="WCasmGg8EaBhy9nUnkJ0-47" value="&lt;font size=&quot;1&quot; color=&quot;#000087&quot;&gt;&lt;b style=&quot;font-size: 12px&quot;&gt;Feature&amp;nbsp; #01&lt;/b&gt;&lt;/font&gt;" style="text;html=1;strokeColor=none;fillColor=none;align=center;verticalAlign=middle;whiteSpace=wrap;rounded=0;shadow=0;" vertex="1" parent="1">
          <mxGeometry x="390" y="373" width="89" height="33" as="geometry" />
        </mxCell>
        <mxCell id="WCasmGg8EaBhy9nUnkJ0-48" value="" style="ellipse;whiteSpace=wrap;html=1;aspect=fixed;fillColor=#749BD6;strokeColor=none;" vertex="1" parent="1">
          <mxGeometry x="626.18" y="291" width="21" height="21" as="geometry" />
        </mxCell>
        <mxCell id="WCasmGg8EaBhy9nUnkJ0-49" value="&lt;font size=&quot;1&quot; color=&quot;#000087&quot;&gt;&lt;b style=&quot;font-size: 12px&quot;&gt;Feature&amp;nbsp; #02&lt;/b&gt;&lt;/font&gt;" style="text;html=1;strokeColor=none;fillColor=none;align=center;verticalAlign=middle;whiteSpace=wrap;rounded=0;shadow=0;" vertex="1" parent="1">
          <mxGeometry x="512" y="378" width="79" height="24" as="geometry" />
        </mxCell>
        <mxCell id="WCasmGg8EaBhy9nUnkJ0-52" value="" style="endArrow=none;html=1;strokeWidth=8;fillColor=#eeeeee;strokeColor=#55D495;" edge="1" parent="1">
          <mxGeometry width="50" height="50" relative="1" as="geometry">
            <mxPoint x="719" y="213" as="sourcePoint" />
            <mxPoint x="849" y="213" as="targetPoint" />
          </mxGeometry>
        </mxCell>
        <mxCell id="WCasmGg8EaBhy9nUnkJ0-55" value="&lt;font color=&quot;#55d495&quot; size=&quot;1&quot;&gt;&lt;b style=&quot;font-size: 14px&quot;&gt;release&lt;/b&gt;&lt;/font&gt;" style="rounded=1;whiteSpace=wrap;html=1;fillColor=none;arcSize=50;strokeColor=#55D495;strokeWidth=2;" vertex="1" parent="1">
          <mxGeometry x="182" y="209" width="67.37" height="30" as="geometry" />
        </mxCell>
        <mxCell id="WCasmGg8EaBhy9nUnkJ0-56" value="&lt;font color=&quot;#ffb366&quot; size=&quot;1&quot;&gt;&lt;b style=&quot;font-size: 14px&quot;&gt;hotfix&lt;/b&gt;&lt;/font&gt;" style="rounded=1;whiteSpace=wrap;html=1;fillColor=none;arcSize=50;strokeColor=#FFB366;strokeWidth=2;" vertex="1" parent="1">
          <mxGeometry x="182" y="154" width="68" height="29" as="geometry" />
        </mxCell>
        <mxCell id="WCasmGg8EaBhy9nUnkJ0-65" value="&lt;b&gt;&lt;font color=&quot;#97a0ab&quot; style=&quot;font-size: 14px&quot;&gt;master&lt;/font&gt;&lt;/b&gt;" style="rounded=1;whiteSpace=wrap;html=1;fillColor=none;arcSize=50;strokeColor=#97A0AB;strokeWidth=2;" vertex="1" parent="1">
          <mxGeometry x="182" y="80" width="67" height="30" as="geometry" />
        </mxCell>
        <mxCell id="WCasmGg8EaBhy9nUnkJ0-73" value="" style="ellipse;whiteSpace=wrap;html=1;aspect=fixed;fillColor=#97A0AB;strokeColor=none;" vertex="1" parent="1">
          <mxGeometry x="342" y="116" width="21" height="21" as="geometry" />
        </mxCell>
        <mxCell id="WCasmGg8EaBhy9nUnkJ0-74" value="" style="endArrow=none;html=1;strokeWidth=10;fillColor=#eeeeee;strokeColor=#97A0AB;" edge="1" parent="1" target="WCasmGg8EaBhy9nUnkJ0-73">
          <mxGeometry width="50" height="50" relative="1" as="geometry">
            <mxPoint x="361" y="128" as="sourcePoint" />
            <mxPoint x="738" y="126" as="targetPoint" />
          </mxGeometry>
        </mxCell>
        <mxCell id="WCasmGg8EaBhy9nUnkJ0-12" value="" style="ellipse;whiteSpace=wrap;html=1;aspect=fixed;fillColor=#000087;strokeColor=none;" vertex="1" parent="1">
          <mxGeometry x="521" y="349" width="21" height="21" as="geometry" />
        </mxCell>
        <mxCell id="WCasmGg8EaBhy9nUnkJ0-78" value="" style="endArrow=none;html=1;strokeColor=#000087;strokeWidth=8;" edge="1" parent="1">
          <mxGeometry width="50" height="50" relative="1" as="geometry">
            <mxPoint x="458" y="363" as="sourcePoint" />
            <mxPoint x="556" y="363" as="targetPoint" />
          </mxGeometry>
        </mxCell>
        <mxCell id="WCasmGg8EaBhy9nUnkJ0-85" value="" style="endArrow=none;html=1;strokeColor=#FFB366;strokeWidth=8;" edge="1" parent="1" source="WCasmGg8EaBhy9nUnkJ0-67">
          <mxGeometry width="50" height="50" relative="1" as="geometry">
            <mxPoint x="442" y="193" as="sourcePoint" />
            <mxPoint x="597" y="193" as="targetPoint" />
          </mxGeometry>
        </mxCell>
        <mxCell id="WCasmGg8EaBhy9nUnkJ0-88" value="" style="ellipse;whiteSpace=wrap;html=1;aspect=fixed;fillColor=#55D495;strokeColor=none;" vertex="1" parent="1">
          <mxGeometry x="839" y="202" width="21" height="21" as="geometry" />
        </mxCell>
        <mxCell id="WCasmGg8EaBhy9nUnkJ0-67" value="" style="ellipse;whiteSpace=wrap;html=1;aspect=fixed;fillColor=#FFB366;strokeColor=none;" vertex="1" parent="1">
          <mxGeometry x="509" y="183" width="21" height="21" as="geometry" />
        </mxCell>
        <mxCell id="WCasmGg8EaBhy9nUnkJ0-92" value="" style="endArrow=none;html=1;strokeColor=#FFB366;strokeWidth=8;" edge="1" parent="1" target="WCasmGg8EaBhy9nUnkJ0-67">
          <mxGeometry width="50" height="50" relative="1" as="geometry">
            <mxPoint x="442" y="193" as="sourcePoint" />
            <mxPoint x="597" y="193" as="targetPoint" />
          </mxGeometry>
        </mxCell>
        <mxCell id="WCasmGg8EaBhy9nUnkJ0-93" value="" style="ellipse;whiteSpace=wrap;html=1;aspect=fixed;fillColor=#97A0AB;strokeColor=none;" vertex="1" parent="1">
          <mxGeometry x="945" y="117" width="21" height="21" as="geometry" />
        </mxCell>
        <mxCell id="WCasmGg8EaBhy9nUnkJ0-95" value="" style="ellipse;whiteSpace=wrap;html=1;aspect=fixed;fillColor=#97A0AB;strokeColor=none;" vertex="1" parent="1">
          <mxGeometry x="717" y="117" width="21" height="21" as="geometry" />
        </mxCell>
        <mxCell id="WCasmGg8EaBhy9nUnkJ0-98" value="" style="endArrow=none;html=1;strokeWidth=8;fillColor=#eeeeee;strokeColor=#97A0AB;" edge="1" parent="1" source="WCasmGg8EaBhy9nUnkJ0-73" target="WCasmGg8EaBhy9nUnkJ0-95">
          <mxGeometry width="50" height="50" relative="1" as="geometry">
            <mxPoint x="362.9999738421774" y="126.52343744161197" as="sourcePoint" />
            <mxPoint x="950" y="128" as="targetPoint" />
          </mxGeometry>
        </mxCell>
        <mxCell id="WCasmGg8EaBhy9nUnkJ0-100" value="" style="ellipse;whiteSpace=wrap;html=1;aspect=fixed;fillColor=#749BD6;strokeColor=none;" vertex="1" parent="1">
          <mxGeometry x="963" y="290" width="21" height="21" as="geometry" />
        </mxCell>
      </root>
    </mxGraphModel>
  </diagram>
</mxfile>
